# xmcd
# 
# Track frame offsets:
#     182
#     19292
#     47145
#     72590
#     99687
#     125212
#     152012
#     164505
#     191805
#     220115
#     255930
#     270902
#     290332
#     313987
# 
# Disc length: 4511
# 
# Revision: 6
# Processed by: cddbd v1.5.2PL0 Copyright (c) Steve Scherf et al.
# Submitted via: fre:ac v1.0.31
# 
DISCID=d5119d0e
DTITLE=Paul_PERSONNE - La_Route_De_La_Chance
DYEAR=1990
DGENRE=Blues
TTITLE0=01- La chance
TTITLE1=02- On s'dit tout
TTITLE2=03- J'prend l'bon coté
TTITLE3=04- Aujourd'hui... c'est d'main déjà
TTITLE4=05- Faut qu'ça bouge
TTITLE5=06- Jacky
TTITLE6=07- Un mec comme moi
TTITLE7=08- Trop tard
TTITLE8=09- Comme un étranger
TTITLE9=10- Perdant blues
TTITLE10=11- Frankie et Johnny
TTITLE11=12- Laisse-moi faire c'que j'veux
TTITLE12=13- Barjoland
TTITLE13=14- Ça va rouler
EXTD=YEAR: 1990 ID3G: 0
EXTT0=
EXTT1=
EXTT2=
EXTT3=
EXTT4=
EXTT5=
EXTT6=
EXTT7=
EXTT8=
EXTT9=
EXTT10=
EXTT11=
EXTT12=
EXTT13=
PLAYORDER=
